<?xml version="1.0" standalone="no"?>
<!DOCTYPE svg PUBLIC "-//W3C//DTD SVG 20010904//EN"
 "http://www.w3.org/TR/2001/REC-SVG-20010904/DTD/svg10.dtd">
<svg version="1.0" xmlns="http://www.w3.org/2000/svg"
 width="260.000000pt" height="260.000000pt" viewBox="0 0 260.000000 260.000000"
 preserveAspectRatio="xMidYMid meet">
<metadata>
Created by potrace 1.11, written by Peter Selinger 2001-2013
</metadata>
<g transform="translate(0.000000,260.000000) scale(0.100000,-0.100000)"
fill="#000000" stroke="none">
<path d="M740 2021 c-52 -33 -310 -185 -357 -212 -17 -10 -50 -29 -72 -43 -22
-15 -45 -26 -51 -26 -5 0 -10 -4 -10 -8 0 -4 -20 -18 -45 -30 l-45 -22 -1 -97
c-1 -54 -1 -118 -1 -143 0 -25 -5 -51 -11 -59 -8 -10 -8 -13 -1 -8 8 5 11 -58
10 -227 0 -129 2 -232 5 -230 3 2 39 -17 78 -41 40 -25 77 -45 83 -45 6 0 8
-7 5 -15 -4 -8 -1 -17 5 -21 7 -4 8 -3 4 4 -4 7 -3 12 3 12 13 0 85 -42 89
-52 2 -4 10 -8 18 -8 9 0 12 -5 8 -12 -5 -8 -2 -9 10 -5 10 4 19 1 22 -8 4 -8
10 -12 15 -9 5 3 9 0 9 -6 0 -6 4 -9 9 -6 5 4 11 3 13 -1 1 -5 26 -20 53 -35
28 -15 49 -32 48 -37 -2 -5 6 -8 17 -6 11 2 20 -1 20 -6 0 -6 5 -7 10 -4 10 6
13 -5 11 -35 0 -10 1 -11 5 -2 3 6 14 12 25 12 18 0 24 -11 20 -34 -1 -5 4 -4
13 3 11 10 17 8 30 -10 13 -20 16 -20 22 -6 3 9 10 14 15 11 5 -3 7 -9 5 -13
-3 -4 1 -8 9 -8 11 0 12 4 4 13 -12 15 -3 37 12 29 5 -4 9 -1 9 4 0 6 9 11 21
11 11 0 17 5 14 10 -3 6 -2 10 3 10 5 0 14 -10 20 -23 11 -21 11 -20 5 6 -4
23 -2 29 16 34 11 3 21 10 21 16 0 6 3 8 6 5 3 -4 -2 -19 -11 -35 -10 -16 -11
-21 -3 -11 8 10 18 16 21 13 4 -3 5 -2 2 1 -2 4 4 14 13 23 10 9 12 12 5 7 -8
-5 -13 -4 -13 3 0 11 13 15 39 12 7 -2 10 2 7 7 -9 15 26 24 37 10 6 -9 7 -6
4 9 -3 13 1 24 10 27 8 3 12 2 9 -2 -2 -4 0 -14 5 -22 9 -13 10 -13 8 0 -3 28
1 41 11 35 5 -3 7 -13 4 -23 -5 -15 -4 -15 6 1 6 9 15 15 21 12 5 -4 9 -1 9 5
0 7 -7 10 -15 6 -8 -3 -15 -1 -15 3 0 13 28 22 35 11 7 -11 35 -2 35 12 0 6
-6 5 -15 -2 -12 -10 -15 -9 -15 5 0 10 3 15 7 12 3 -4 14 0 24 9 13 12 19 12
25 3 5 -8 3 -10 -6 -4 -9 5 -11 4 -6 -4 6 -8 12 -9 20 -2 7 6 16 8 19 4 4 -3
7 -1 7 6 0 8 -7 11 -15 7 -18 -6 -20 5 -4 21 6 6 18 9 25 6 8 -3 17 2 20 11 3
9 12 16 18 16 7 0 27 11 46 25 19 14 42 25 53 25 10 0 15 4 12 10 -4 6 1 7 11
3 13 -5 15 -3 9 7 -6 10 -4 12 8 7 9 -3 19 -1 23 5 4 7 3 8 -5 4 -6 -4 -14 0
-17 9 -9 21 5 33 16 15 7 -11 10 -11 10 -2 0 7 -6 15 -13 18 -8 3 -14 21 -14
44 0 22 3 37 8 34 5 -3 9 0 9 5 0 6 -4 11 -10 11 -5 0 -10 5 -10 11 0 6 8 8
18 5 15 -5 15 -5 1 6 -16 14 -23 118 -8 118 5 0 9 5 9 11 0 5 -4 8 -9 5 -5 -3
-8 6 -8 20 0 17 4 23 13 20 8 -3 11 0 7 9 -3 8 -9 13 -13 10 -4 -2 -7 18 -7
45 0 27 4 47 8 44 5 -3 9 0 9 5 0 6 -4 11 -10 11 -5 0 -10 5 -10 11 0 6 8 8
18 5 15 -5 15 -5 1 6 -16 14 -23 118 -8 118 5 0 9 5 9 11 0 5 -4 8 -9 5 -5 -3
-8 6 -8 20 0 17 4 23 13 20 8 -3 11 0 7 9 -3 8 -10 12 -15 9 -6 -4 -9 -1 -6 7
3 8 10 14 16 14 5 0 14 3 18 7 3 4 -3 6 -15 3 -17 -3 -21 1 -21 25 0 24 -8 33
-49 57 -27 15 -48 30 -45 34 2 4 -4 6 -14 5 -9 0 -16 5 -14 12 1 8 -2 11 -7 8
-13 -8 -42 4 -35 15 3 5 2 9 -3 8 -20 -3 -34 2 -28 11 3 6 -1 7 -9 4 -9 -3
-16 -2 -16 4 0 5 -11 13 -25 16 -16 4 -23 11 -19 18 4 6 3 8 -3 5 -6 -4 -27 4
-47 18 -20 14 -40 25 -44 25 -18 1 -112 67 -105 75 5 4 3 5 -4 1 -15 -8 -76
28 -65 39 4 5 2 6 -4 2 -5 -3 -29 5 -53 19 -24 13 -46 24 -50 23 -3 0 -26 -13
-51 -28z m70 -274 c0 -6 3 -7 6 -4 4 4 19 -2 34 -13 16 -11 32 -20 37 -20 17
0 73 -47 65 -55 -4 -5 1 -5 10 -2 10 3 24 -1 32 -9 9 -8 19 -15 23 -16 18 -2
53 -22 53 -30 0 -4 6 -8 13 -8 6 0 33 -14 60 -30 l47 -30 0 -236 c0 -219 -1
-236 -17 -230 -10 4 -14 4 -10 0 8 -8 -90 -73 -110 -74 -6 0 -13 -3 -15 -8 -3
-8 -176 -112 -191 -115 -6 -1 -19 -10 -29 -20 -15 -14 -22 -15 -37 -5 -11 7
-17 16 -14 22 4 5 1 6 -6 2 -7 -5 -29 3 -51 18 -22 14 -44 26 -50 26 -5 0 -10
5 -10 10 0 6 -7 10 -15 10 -8 0 -15 4 -15 8 0 4 -14 13 -31 19 -20 8 -28 16
-23 24 4 8 3 9 -4 5 -7 -4 -40 9 -74 29 -78 46 -74 41 -57 62 13 17 12 17 -7
0 -21 -17 -21 -17 -21 9 0 18 2 22 8 13 5 -8 9 -9 9 -3 0 5 -5 15 -12 22 -9 9
-9 12 0 12 7 0 12 5 12 11 0 5 -4 7 -10 4 -16 -10 -7 118 10 133 13 12 13 13
-2 8 -10 -3 -18 -1 -18 4 0 6 6 10 13 10 8 0 8 3 1 8 -13 9 -12 228 2 225 5
-1 18 -5 29 -9 19 -7 20 -6 1 8 -15 12 -16 17 -6 23 9 6 11 4 5 -6 -5 -8 3 -2
18 14 14 15 35 27 45 27 11 0 23 7 26 16 4 9 9 14 12 11 4 -3 16 3 27 14 19
18 23 18 33 4 11 -14 12 -14 18 1 5 12 10 13 19 6 10 -8 13 -6 13 8 0 18 -2
18 -23 5 -13 -9 -23 -12 -23 -8 0 5 15 17 33 28 17 10 48 29 67 40 20 12 42
19 49 17 9 -3 11 0 6 8 -6 9 -3 9 13 1 13 -7 19 -17 16 -26 -4 -8 -2 -15 4
-15 13 0 10 24 -6 42 -9 12 -9 15 3 15 8 0 15 -5 15 -10z"/>
<path d="M740 1720 c0 -5 5 -10 11 -10 5 0 7 5 4 10 -3 6 -8 10 -11 10 -2 0
-4 -4 -4 -10z"/>
<path d="M693 1698 c-13 -6 -23 -15 -23 -21 0 -5 6 -5 13 2 8 6 17 8 20 4 4
-3 7 -1 7 5 0 17 18 15 23 -3 4 -12 5 -11 3 1 -1 22 -15 25 -43 12z"/>
<path d="M878 1693 c7 -3 16 -2 19 1 4 3 -2 6 -13 5 -11 0 -14 -3 -6 -6z"/>
<path d="M916 1658 c3 -5 10 -6 15 -3 13 9 11 12 -6 12 -8 0 -12 -4 -9 -9z"/>
<path d="M670 1657 c0 -2 6 -10 14 -16 11 -9 16 -9 22 1 4 7 4 10 -1 6 -4 -4
-14 -3 -22 3 -7 6 -13 9 -13 6z"/>
<path d="M570 1616 c0 -2 6 -9 14 -15 11 -9 16 -9 22 0 4 8 3 9 -4 5 -7 -4
-12 -2 -12 3 0 6 -4 11 -10 11 -5 0 -10 -2 -10 -4z"/>
<path d="M1013 1606 c0 -6 10 -11 23 -11 25 0 23 10 -4 17 -10 3 -19 0 -19 -6z"/>
<path d="M547 1599 c7 -7 15 -10 18 -7 3 3 -2 9 -12 12 -14 6 -15 5 -6 -5z"/>
<path d="M530 1580 c0 -5 5 -10 11 -10 5 0 7 5 4 10 -3 6 -8 10 -11 10 -2 0
-4 -4 -4 -10z"/>
<path d="M485 1572 c-5 -4 -11 -16 -12 -27 -1 -11 0 -14 3 -7 3 6 10 10 15 7
5 -4 6 1 3 9 -8 21 5 20 23 -1 13 -16 13 -16 3 5 -11 23 -19 26 -35 14z"/>
<path d="M1134 1538 c-4 -7 -4 -10 1 -6 4 4 15 2 24 -5 14 -11 14 -10 2 6 -16
20 -18 21 -27 5z"/>
<path d="M413 1517 c0 -8 6 -14 14 -14 9 0 10 4 2 14 -6 7 -12 13 -14 13 -1 0
-2 -6 -2 -13z"/>
<path d="M450 1499 c0 -5 5 -7 10 -4 6 3 10 8 10 11 0 2 -4 4 -10 4 -5 0 -10
-5 -10 -11z"/>
<path d="M1156 1498 c3 -5 10 -6 15 -3 13 9 11 12 -6 12 -8 0 -12 -4 -9 -9z"/>
<path d="M416 1482 c-3 -5 1 -9 9 -9 8 0 12 4 9 9 -3 4 -7 8 -9 8 -2 0 -6 -4
-9 -8z"/>
<path d="M416 1218 c3 -5 10 -6 15 -3 13 9 11 12 -6 12 -8 0 -12 -4 -9 -9z"/>
<path d="M414 1178 c-4 -5 -3 -12 0 -15 3 -4 6 -1 6 6 0 7 4 10 9 6 5 -3 12
-2 15 3 3 5 -2 9 -10 9 -8 0 -17 -4 -20 -9z"/>
<path d="M435 1140 c3 -5 8 -10 11 -10 2 0 4 5 4 10 0 6 -5 10 -11 10 -5 0 -7
-4 -4 -10z"/>
<path d="M1953 2009 c-35 -21 -63 -35 -63 -31 0 4 -4 2 -8 -4 -10 -15 -112
-75 -112 -66 0 4 -4 2 -8 -4 -4 -5 -35 -27 -69 -48 -61 -36 -62 -38 -65 -84
-2 -26 -1 -73 2 -105 3 -32 3 -63 -1 -69 -4 -6 -3 -23 1 -38 4 -15 4 -33 0
-40 -4 -7 -4 -25 0 -40 4 -15 5 -33 1 -39 -17 -26 1 -73 35 -93 19 -11 31 -25
27 -31 -3 -6 -1 -7 5 -3 10 6 54 -15 72 -34 3 -3 26 -16 53 -29 26 -13 47 -28
47 -32 0 -5 7 -9 15 -9 8 0 24 -9 35 -20 11 -11 20 -18 20 -15 0 3 10 0 22 -6
21 -11 21 -12 3 -25 -10 -8 -14 -14 -8 -14 7 0 15 5 18 10 10 17 28 11 21 -6
-5 -13 -4 -14 7 -6 19 16 30 3 14 -17 -10 -14 -10 -14 5 -3 14 11 22 10 50 -4
18 -9 35 -18 38 -21 2 -2 5 -36 7 -76 2 -79 2 -78 -85 -125 -42 -22 -82 -23
-82 -1 0 6 -4 7 -10 4 -5 -3 -10 -1 -10 4 0 6 -4 11 -10 11 -5 0 -32 14 -61
31 -28 16 -57 27 -63 24 -6 -3 -20 -11 -31 -18 -11 -7 -43 -25 -70 -41 -28
-16 -72 -42 -98 -59 l-48 -30 36 -21 c20 -12 32 -26 28 -31 -4 -4 -3 -5 4 -1
15 8 64 -43 56 -58 -3 -6 0 -5 7 1 12 11 11 16 -6 29 -10 9 -1 5 21 -7 70 -40
75 -44 75 -56 0 -7 5 -13 11 -13 5 0 7 5 3 11 -4 8 0 8 15 0 11 -7 21 -16 21
-21 0 -6 7 -10 15 -10 8 0 15 -5 15 -11 0 -5 4 -8 9 -4 5 3 16 -1 24 -10 8 -8
21 -16 28 -17 8 -2 19 -12 26 -23 7 -11 12 -14 13 -7 0 7 4 11 10 7 5 -3 8
-11 6 -18 -1 -7 -1 -9 1 -4 3 4 11 7 19 7 8 0 32 11 52 25 22 15 40 21 45 16
5 -5 16 -7 25 -4 11 5 13 3 7 -7 -5 -8 -4 -11 3 -6 6 4 9 13 5 22 -4 12 -8 12
-21 2 -14 -12 -14 -11 -1 9 17 29 23 29 38 1 11 -23 11 -23 6 -1 -5 16 2 27
26 45 17 13 35 22 40 21 5 -2 9 2 9 8 0 5 5 7 10 4 18 -11 11 -24 -10 -20 -11
2 -18 0 -15 -6 6 -9 -9 -14 -30 -9 -5 1 -7 -2 -3 -6 5 -4 20 -9 35 -10 21 -2
24 -1 13 6 -15 9 -13 11 13 14 6 1 11 12 10 24 -2 13 1 21 7 17 6 -3 10 -2 10
2 0 5 9 14 20 21 17 10 20 10 20 -4 0 -8 -4 -13 -9 -9 -15 9 -25 -15 -12 -28
9 -9 11 -8 5 6 -4 12 -2 17 7 15 7 -2 15 6 17 17 5 24 31 44 52 40 9 -2 16 5
18 16 4 45 6 50 19 45 7 -3 13 -1 13 4 0 6 -7 10 -15 10 -8 0 -15 7 -15 16 0
9 5 12 13 8 7 -5 6 0 -3 11 -14 17 -13 18 5 11 11 -4 16 -4 12 0 -4 4 -1 14 5
23 10 13 10 14 -2 3 -8 -6 -17 -12 -21 -12 -10 0 -8 99 2 106 5 3 9 11 9 17 0
7 -4 6 -10 -3 -6 -10 -9 -6 -8 17 1 21 5 30 13 26 7 -2 16 1 21 8 4 8 3 10 -4
5 -7 -4 -17 -4 -23 0 -8 4 -7 9 2 15 9 5 10 9 3 9 -8 0 -12 24 -13 66 -1 73
-7 86 -51 104 -16 7 -27 17 -23 23 3 5 2 7 -4 4 -5 -3 -26 5 -46 18 -20 14
-41 25 -48 25 -7 0 -9 3 -5 7 3 4 -8 12 -26 18 -18 6 -32 17 -30 24 1 7 -1 10
-6 7 -11 -6 -73 24 -67 34 3 4 -3 7 -13 6 -9 0 -16 4 -15 11 2 7 -3 10 -10 7
-7 -2 -30 7 -51 21 -20 14 -41 25 -47 25 -6 0 -7 5 -4 10 3 6 -3 10 -14 10
-25 0 -38 20 -20 31 11 7 11 9 1 9 -9 0 -12 10 -11 28 4 33 16 52 32 48 7 -1
9 -1 4 1 -4 3 -4 10 -1 16 5 8 2 8 -7 0 -17 -17 -28 -16 -25 1 3 21 27 47 37
40 5 -3 9 0 9 5 0 6 7 11 15 11 8 0 15 5 15 11 0 7 11 4 28 -7 18 -11 23 -13
15 -3 -7 9 -8 20 -4 28 7 11 15 10 42 -5 19 -11 36 -22 37 -26 2 -5 12 -8 22
-8 9 0 23 -7 30 -15 7 -8 18 -15 25 -15 7 0 18 -7 25 -15 10 -12 10 -15 0 -15
-8 0 -11 -3 -7 -6 3 -3 21 5 39 19 22 17 38 23 47 17 19 -11 41 -1 41 19 -1
14 -2 14 -11 -2 -6 -9 -15 -15 -20 -11 -15 9 22 33 40 26 9 -3 12 -1 7 6 -5 8
-1 10 10 5 13 -5 15 -3 9 7 -5 9 -4 11 4 6 6 -4 14 0 17 9 6 14 8 14 25 -1 11
-10 19 -12 19 -6 0 7 -4 12 -10 12 -17 0 -11 20 8 27 9 4 25 14 34 23 17 15
13 19 -57 59 -41 24 -75 48 -75 53 0 5 -4 7 -10 3 -5 -3 -18 3 -30 15 -11 11
-22 20 -25 20 -3 0 -10 0 -16 0 -5 0 -7 5 -3 12 5 7 3 8 -5 4 -7 -5 -20 -2
-29 6 -9 8 -29 20 -44 27 -15 8 -25 19 -21 24 3 6 1 7 -5 3 -6 -4 -29 5 -51
19 -23 14 -44 25 -48 24 -5 0 -36 -18 -70 -40z"/>
<path d="M2436 1755 c-3 -9 -11 -13 -17 -9 -8 5 -9 3 -4 -5 6 -10 11 -9 23 3
9 8 13 18 10 21 -3 3 -8 -1 -12 -10z"/>
<path d="M2021 1725 c0 -5 3 -16 8 -23 7 -11 9 -10 14 3 4 9 3 14 -2 10 -5 -3
-12 1 -14 7 -3 7 -6 9 -6 3z"/>
<path d="M1961 1691 c-8 -5 -16 -17 -17 -25 -1 -9 2 -14 7 -10 5 3 6 10 3 16
-5 8 -1 9 10 5 11 -5 15 -3 10 5 -5 8 -2 9 10 5 10 -4 15 -3 11 3 -8 12 -16
12 -34 1z"/>
<path d="M2051 1684 c0 -11 3 -14 6 -6 3 7 2 16 -1 19 -3 4 -6 -2 -5 -13z"/>
<path d="M2340 1680 c0 -5 7 -7 15 -4 8 4 15 8 15 10 0 2 -7 4 -15 4 -8 0 -15
-4 -15 -10z"/>
<path d="M1910 1665 c-11 -13 -10 -14 4 -9 9 3 16 10 16 15 0 13 -6 11 -20 -6z"/>
<path d="M2114 1669 c-4 -7 -3 -9 4 -5 5 3 13 0 15 -6 4 -9 6 -10 6 -1 1 17
-16 25 -25 12z"/>
<path d="M2256 1647 c3 -10 9 -15 12 -12 3 3 0 11 -7 18 -10 9 -11 8 -5 -6z"/>
<path d="M2220 1635 c0 -2 6 -8 13 -14 10 -8 14 -7 14 2 0 8 -6 14 -14 14 -7
0 -13 -1 -13 -2z"/>
<path d="M1454 1462 c3 -5 0 -13 -6 -15 -9 -4 -10 -6 -1 -6 17 -1 25 16 12 25
-7 4 -9 3 -5 -4z"/>
<path d="M1650 1336 c0 -2 8 -10 18 -17 15 -13 16 -12 3 4 -13 16 -21 21 -21
13z"/>
<path d="M1440 1322 c0 -5 7 -9 15 -9 8 0 12 4 9 9 -3 4 -9 8 -15 8 -5 0 -9
-4 -9 -8z"/>
<path d="M1790 1256 c0 -2 7 -9 15 -16 9 -7 15 -8 15 -2 0 5 -7 12 -15 16 -8
3 -15 4 -15 2z"/>
<path d="M1830 1226 c0 -2 7 -7 16 -10 8 -3 12 -2 9 4 -6 10 -25 14 -25 6z"/>
<path d="M1454 1142 c3 -5 0 -13 -6 -15 -9 -4 -10 -6 -1 -6 17 -1 25 16 12 25
-7 4 -9 3 -5 -4z"/>
<path d="M2395 1121 c-3 -5 -2 -12 3 -15 5 -3 9 1 9 9 0 17 -3 19 -12 6z"/>
<path d="M2076 1082 c-3 -5 1 -9 9 -9 8 0 12 4 9 9 -3 4 -7 8 -9 8 -2 0 -6 -4
-9 -8z"/>
<path d="M1446 995 c4 -8 8 -15 10 -15 2 0 4 7 4 15 0 8 -4 15 -10 15 -5 0 -7
-7 -4 -15z"/>
<path d="M2400 980 c-9 -6 -10 -10 -3 -10 6 0 15 5 18 10 8 12 4 12 -15 0z"/>
<path d="M2390 956 c0 -2 8 -10 18 -17 15 -13 16 -12 3 4 -13 16 -21 21 -21
13z"/>
<path d="M196 882 c-3 -5 1 -9 9 -9 8 0 12 4 9 9 -3 4 -7 8 -9 8 -2 0 -6 -4
-9 -8z"/>
<path d="M1359 870 c-12 -8 -12 -12 2 -26 12 -11 19 -12 24 -5 3 6 2 10 -3 9
-6 -2 -9 2 -8 7 0 6 6 10 13 10 6 0 14 3 17 6 9 9 -30 8 -45 -1z"/>
<path d="M253 845 c0 -8 4 -15 9 -15 4 0 8 4 8 9 0 6 -4 12 -8 15 -5 3 -9 -1
-9 -9z"/>
<path d="M1294 825 c-19 -15 -19 -16 1 -13 12 2 19 -2 17 -10 -1 -8 2 -11 8
-7 8 5 8 11 1 19 -6 7 -8 16 -4 19 12 13 -3 7 -23 -8z"/>
<path d="M287 819 c7 -7 15 -10 18 -7 3 3 -2 9 -12 12 -14 6 -15 5 -6 -5z"/>
<path d="M2385 780 c-3 -6 1 -7 9 -4 18 7 21 14 7 14 -6 0 -13 -4 -16 -10z"/>
<path d="M2326 732 c-2 -4 0 -14 6 -22 8 -12 9 -11 4 3 -5 15 -2 17 17 12 17
-5 19 -4 7 4 -18 13 -27 14 -34 3z"/>
<path d="M1620 720 c-9 -6 -10 -10 -3 -10 6 0 15 5 18 10 8 12 4 12 -15 0z"/>
<path d="M535 670 c-3 -6 1 -7 9 -4 18 7 21 14 7 14 -6 0 -13 -4 -16 -10z"/>
<path d="M1040 671 c0 -6 4 -13 10 -16 6 -3 7 1 4 9 -7 18 -14 21 -14 7z"/>
<path d="M590 646 c0 -2 7 -7 16 -10 8 -3 12 -2 9 4 -6 10 -25 14 -25 6z"/>
<path d="M1015 640 c-3 -6 1 -7 9 -4 18 7 21 14 7 14 -6 0 -13 -4 -16 -10z"/>
<path d="M2155 630 c-3 -5 -1 -10 4 -10 6 0 11 5 11 10 0 6 -2 10 -4 10 -3 0
-8 -4 -11 -10z"/>
<path d="M630 606 c0 -2 7 -7 16 -10 8 -3 12 -2 9 4 -6 10 -25 14 -25 6z"/>
<path d="M2062 583 c-6 -2 -10 -9 -6 -14 3 -5 -1 -9 -9 -9 -21 0 -41 -26 -27
-35 6 -4 9 -1 8 6 -2 7 5 15 16 17 13 3 16 0 11 -9 -6 -8 -4 -10 4 -5 7 5 10
10 7 13 -3 3 -1 14 5 24 5 11 8 19 7 18 -2 0 -9 -3 -16 -6z"/>
<path d="M868 569 c-6 -4 -17 -5 -23 -2 -5 3 -5 0 2 -7 9 -10 15 -10 26 -2 8
7 16 9 19 6 3 -3 8 -1 12 4 6 11 -18 12 -36 1z"/>
<path d="M1910 560 c0 -5 5 -10 11 -10 5 0 7 5 4 10 -3 6 -8 10 -11 10 -2 0
-4 -4 -4 -10z"/>
<path d="M755 540 c-3 -5 -1 -10 4 -10 6 0 11 5 11 10 0 6 -2 10 -4 10 -3 0
-8 -4 -11 -10z"/>
</g>
</svg>
